<svg xmlns="http://www.w3.org/2000/svg" width="20" height="20" viewBox="0 0 20 20" fill="rgba(255, 0, 0)">
  <title>youtube</title>
  <path d="M17.666,5.349a2.006,2.006,0,0,0-1.415-1.415A47.864,47.864,0,0,0,10,3.6a47.864,47.864,0,0,0-6.251.334A2.006,2.006,0,0,0,2.334,5.349,28.546,28.546,0,0,0,2,10a28.546,28.546,0,0,0,.334,4.651,2.006,2.006,0,0,0,1.415,1.415A47.864,47.864,0,0,0,10,16.4a47.864,47.864,0,0,0,6.251-.334,2,2,0,0,0,1.415-1.415A28.546,28.546,0,0,0,18,10,28.546,28.546,0,0,0,17.666,5.349ZM8,13V7l5.2,3Z"/>
</svg>
